<svg version="1.1" xmlns="http://www.w3.org/2000/svg" xmlns:xlink="http://www.w3.org/1999/xlink" width="390.12806" height="219.09823" viewBox="0,0,390.12806,219.09823"><defs><radialGradient cx="125.57693" cy="126.79212" r="193.06403" gradientUnits="userSpaceOnUse" id="color-1"><stop offset="0" stop-color="#7b7b7b"/><stop offset="1" stop-color="#4a4a4a"/></radialGradient><radialGradient cx="137.38826" cy="117.76428" r="77.13926" gradientUnits="userSpaceOnUse" id="color-2"><stop offset="0" stop-color="#7b7b7b"/><stop offset="1" stop-color="#585858"/></radialGradient></defs><g transform="translate(-44.93597,-70.45089)"><g data-paper-data="{&quot;isPaintingLayer&quot;:true}" fill-rule="nonzero" stroke-linejoin="miter" stroke-miterlimit="10" stroke-dasharray="" stroke-dashoffset="0" style="mix-blend-mode: normal"><path d="M46.93597,287.54911v-215.09823h386.12806v215.09823z" fill="url(#color-1)" stroke="#828282" stroke-width="4" stroke-linecap="butt"/><g stroke-width="5" stroke-linecap="butt"><path d="M134.11693,122.73788c-0.30286,-4.4181 3.0332,-8.24519 7.4513,-8.54806c0.24457,-0.01677 129.89141,-8.89309 130.13186,-8.88798c3.83357,0.08137 7.08031,2.8869 7.7238,6.6589c0.04526,0.26532 8.91458,129.44668 8.93338,129.72095c0.28695,4.18594 -2.69264,7.84136 -6.76415,8.47155c-0.22582,0.03495 -0.45498,0.0606 -0.68714,0.07652c-0.25867,0.01773 -129.91938,8.8937 -130.17342,8.887c-3.73384,-0.09852 -6.90282,-2.78105 -7.63757,-6.41806c-0.06906,-0.34186 -8.95355,-129.60342 -8.97805,-129.9608z" fill="none" stroke="#333333"/><path d="M129.69832,118.31928c-0.30286,-4.4181 3.03319,-8.24519 7.45129,-8.54806c0.24457,-0.01677 129.89141,-8.89309 130.13186,-8.88798c3.83357,0.08137 7.08031,2.8869 7.7238,6.6589c0.04526,0.26532 8.91458,129.44669 8.93338,129.72095c0.28695,4.18594 -2.69264,7.84135 -6.76415,8.47154c-0.22582,0.03495 -0.45498,0.0606 -0.68714,0.07652c-0.25867,0.01773 -129.91938,8.8937 -130.17342,8.887c-3.73384,-0.09852 -6.90282,-2.78105 -7.63757,-6.41806c-0.06906,-0.34186 -8.95355,-129.60343 -8.97805,-129.9608z" fill="url(#color-2)" stroke="#ffffff"/></g><g fill="none" stroke-width="5" stroke-linecap="round"><g stroke="#333333"><path d="M165.03717,153.46621l-0.91156,-12.29432l12.29432,-0.91156"/><path d="M238.92068,135.42648l12.29432,-0.91155l0.91155,12.29432"/><path d="M256.89217,209.62313l0.91156,12.29431l-12.29432,0.91156"/><path d="M182.57982,227.49489l-12.29432,0.91155l-0.91155,-12.29432"/></g><g stroke="#ffffff"><path d="M160.49508,148.70053l-0.91156,-12.29432l12.29432,-0.91155"/><path d="M234.37859,130.6608l12.29431,-0.91156l0.91156,12.29431"/><path d="M252.35008,204.85744l0.91156,12.29432l-12.29431,0.91155"/><path d="M178.03773,222.72921l-12.29431,0.91156l-0.91156,-12.29432"/></g></g><g fill="none" stroke-width="4.5" stroke-linecap="round"><g stroke="#333333"><path d="M197.08406,167.82125l2.40786,-0.20145l-12.78573,1.0697l0.94069,11.24376l12.10345,-1.01261l-12.09811,1.01217l1.05715,12.63584l-0.12543,-1.49917"/><path d="M214.12931,187.7148l0.16893,2.01915l-2.15103,-25.71053l0.14077,1.68263l0.0227,0.52873l-1.33655,0.15265l-5.60544,5.72627l1.93442,-1.9918"/><path d="M229.09011,186.66848l0.16893,2.01916l-2.15103,-25.71053l0.14077,1.68263l0.0227,0.52872l-1.33655,0.15265l-5.60544,5.72626l1.93442,-1.9918"/></g><g stroke="#ffffff"><path d="M194.46101,164.98505l2.40787,-0.20145l-12.78573,1.06969l0.94069,11.24376l12.10345,-1.01261l-12.09811,1.01217l1.05715,12.63584l-0.12542,-1.49917"/><path d="M211.50626,184.8786l0.16893,2.01915l-2.15103,-25.71052l0.14078,1.68263l0.0227,0.52873l-1.33655,0.15265l-5.60544,5.72627l1.93442,-1.9918"/><path d="M226.46707,183.83229l0.16893,2.01915l-2.15103,-25.71053l0.14078,1.68263l0.0227,0.52873l-1.33656,0.15265l-5.60544,5.72627l1.93442,-1.99179"/></g></g><g fill="none" stroke-width="5" stroke-linecap="round"><g stroke="#333333"><path d="M339.77319,196.29887l-1.83709,-24.38467l24.38467,-1.83709"/><path d="M336.27979,147.77709l1.83708,24.38466l-24.38467,1.83709"/></g><g stroke="#ffffff"><path d="M335.52026,191.38784l-1.83709,-24.38467l24.38468,-1.83709"/><path d="M332.02686,142.86604l1.83709,24.38467l-24.38468,1.83709"/></g></g></g></g></svg>